<?xml version="1.0" encoding="utf-8"?>
<!-- Generator: Adobe Illustrator 21.1.0, SVG Export Plug-In . SVG Version: 6.00 Build 0)  -->
<svg version="1.1" id="Laag_1" xmlns="http://www.w3.org/2000/svg"  x="0px" y="0px"
	 viewBox="0 0 230 230" style="enable-background:new 0 0 230 230;" xml:space="preserve">
<style type="text/css">
	.st0{fill:none;stroke:#28A6DF;stroke-width:3.2285;stroke-linecap:round;stroke-miterlimit:10;}
	.st1{fill:none;stroke:#28A6DF;stroke-width:3.4059;stroke-linecap:round;stroke-linejoin:round;stroke-miterlimit:10;}
	.st2{fill:#54AF32;}
</style>
<g>
	<path class="st0" d="M116.4,153.4"/>
	<path class="st0" d="M100.5,113.7l-73.2,7.9c-3,0.3-4.6,3.6-3,6.2l53,85.6c1.9,3.1,5.6,4.5,9.1,3.5l121.3-35.2c3.3-1,4-5.3,1.1-7.3
		l-44.5-29.6"/>
	<path class="st0" d="M24.9,130.5c-3,0.3-4.6,3.6-3,6.2l53,85.6c1.9,3.1,5.6,4.5,9.1,3.5l121.3-35.2c3.3-1,4-5.3,1.1-7.3"/>
	<line class="st0" x1="54.4" y1="133.6" x2="102.1" y2="127.1"/>
	<line class="st0" x1="62.8" y1="145.1" x2="109.4" y2="139.2"/>
	<line class="st0" x1="74.7" y1="157.5" x2="123.1" y2="149.7"/>
	<circle class="st1" cx="139.3" cy="114.1" r="38.7"/>
	<g>
		<g>
			<path class="st2" d="M121.1,116.4c5.2,5.5,9.7,11.4,13.7,17.9c2.6,4.3,8.7,2.2,9-2.4c0.9-11.7,5.6-22.7,13.4-31.6
				c4.1-4.7-2.7-11.5-6.8-6.8c-9.6,10.9-15.1,24-16.2,38.4c3-0.8,6-1.6,9-2.4c-4.4-7.1-9.4-13.8-15.2-19.9
				C123.7,105,116.8,111.8,121.1,116.4L121.1,116.4z"/>
		</g>
	</g>
</g>
</svg>
