<?xml version="1.0" encoding="utf-8"?>
<!-- Generator: Adobe Illustrator 21.1.0, SVG Export Plug-In . SVG Version: 6.00 Build 0)  -->
<svg version="1.1" id="Laag_1" xmlns="http://www.w3.org/2000/svg"  x="0px" y="0px"
	 viewBox="0 0 95 95" style="enable-background:new 0 0 95 95;" xml:space="preserve">
<style type="text/css">
	.st0{fill:#566992;}
</style>
<path class="st0" d="M82.9,47.3c-0.5-0.6-0.9-1-1.3-1.2c0-0.5-0.1-1.1-0.5-1.6c-0.5-0.6-1.1-1.1-1.7-1.4c0.1-0.7,0.1-1.8-0.7-2.6
	c-0.9-0.9-1.8-1.3-2.7-1.3c-0.1-0.5-0.4-1-0.9-1.4c-1.1-1-2.8-1.2-3.8-0.5l-8.1-8.1L58.4,24L56,18.4c0,0,0-0.1,0-0.1
	c-0.1-0.1-0.5-0.9-0.9-1.3c-0.4-0.3-4.4-3.6-4.8-4c0,0-0.1,0-0.1-0.1c-0.6-0.4-2-0.8-3.3,0.1c-0.6,0.5-1,0.9-1.2,1.3
	c-0.5,0-1.1,0.1-1.6,0.5c-0.6,0.5-1.1,1.1-1.4,1.7c-0.7-0.1-1.8-0.1-2.6,0.7c-0.9,0.9-1.3,1.8-1.3,2.7c-0.5,0.1-1,0.4-1.4,0.9
	c-0.9,1-1.2,2.5-0.7,3.5l-8.2,8.2l-5.1,5.1l-5.5,2.3c0,0-0.1,0-0.1,0c-0.1,0.1-0.9,0.5-1.3,0.9c-0.3,0.4-3.6,4.4-4,4.8
	c0,0,0,0.1-0.1,0.1c-0.4,0.6-0.8,2,0.1,3.3c0.5,0.6,0.9,1,1.3,1.2c0,0.5,0.1,1.1,0.5,1.6c0.5,0.6,1.1,1.1,1.7,1.4
	c-0.1,0.7-0.1,1.8,0.7,2.6c0.9,0.9,1.8,1.3,2.7,1.3c0.1,0.5,0.4,1,0.9,1.4c0.7,0.6,1.6,0.9,2.4,0.9c0.5,0,1-0.1,1.4-0.4l8.1,8.1
	l5.1,5.1l2.3,5.5c0,0,0,0.1,0,0.1c0.1,0.1,0.5,0.9,0.9,1.3c0.4,0.3,4.4,3.6,4.8,4c0,0,0.1,0,0.1,0.1c0.3,0.2,0.9,0.4,1.6,0.4
	c0.5,0,1.1-0.1,1.7-0.6c0.6-0.5,1-0.9,1.2-1.3c0.5,0,1.1-0.1,1.6-0.5c0.6-0.5,1.1-1.1,1.4-1.7c0.7,0.1,1.8,0.1,2.6-0.7
	c0.9-0.9,1.3-1.8,1.3-2.7c0.5-0.1,1-0.4,1.4-0.9c0.9-1,1.2-2.5,0.7-3.5l8.2-8.2l5.1-5.1l5.5-2.3c0,0,0.1,0,0.1,0
	c0.1-0.1,0.9-0.5,1.3-0.9c0.3-0.4,3.6-4.4,4-4.8c0,0,0-0.1,0.1-0.1C83.5,49.9,83.9,48.6,82.9,47.3z M39.3,21.6c0.1,0,0.1,0,0.2,0
	l0.6,0.6l0.6,0.6l1.1,1.1c0.2,0.2,0.4,0.3,0.6,0.3s0.5-0.1,0.6-0.3c0.3-0.3,0.3-0.9,0-1.3l-1.1-1.1l-0.6-0.6l-0.6-0.6l1.8-1.8
	c0,0,0.1,0,0.1,0l0.5,0.5l0.6,0.6l0.9,0.9c0.2,0.2,0.4,0.3,0.6,0.3c0.2,0,0.5-0.1,0.6-0.3c0.3-0.3,0.3-0.9,0-1.3l-0.9-0.9l-0.6-0.6
	l-0.3-0.3c0.2-0.4,0.5-0.8,0.9-1.1c0.2-0.1,0.5-0.1,0.7-0.1l1.6,1.6c0.1,0.1,0.3,0.2,0.5,0.2c0,0,0.1,0,0.1,0c0.2,0,0.5-0.1,0.6-0.3
	c0.3-0.3,0.3-0.9,0-1.3l-1.3-1.3c0.1-0.2,0.3-0.4,0.7-0.6c0.6-0.4,1.1-0.2,1.2-0.1c1.7,1.4,4.5,3.6,4.7,3.9c0.1,0.1,0.4,0.5,0.6,0.8
	l2.4,5.7c0,0.1,0.1,0.2,0.2,0.3l4.6,4.6l-8.2,8.2l-2.5-2.5c-0.5-0.5-1.1-1-2.2-1c-0.1,0-0.1,0-0.2,0c-0.2,0-0.4,0-0.6,0
	c-0.5,0-0.9,0-1.3,0c-0.5,0-0.9,0-1.3,0c-1,0-1.6-0.1-1.8-0.2c-0.4-0.2-1.5-1.7-1.8-2.2c-0.2-0.2-0.3-0.4-0.4-0.5
	c-0.3-0.3-0.7-0.5-1.1-0.7c-0.4-0.2-1-0.5-1.6-1c-1-0.8-0.3-2.3-0.3-2.3c0.1-0.2,0.3-0.4,0.7-0.7l3.3,3.3c0.2,0.2,0.4,0.3,0.6,0.3
	c0.2,0,0.5-0.1,0.6-0.3c0.3-0.3,0.3-0.9,0-1.3l-3.9-3.9L39,24.4l-0.6-0.6l-0.2-0.2c-0.1-0.1-0.1-0.5,0-0.8L39.3,21.6z M56.9,55
	l8.2,8.2L62.3,66l-8.2-8.2L56.9,55z M68.8,37c-1.1-0.3-2.8-0.5-4,0.9c-0.7,0.8-1,1.5-1.2,2c-0.1,0.2-0.2,0.4-0.2,0.5
	c-0.1,0.1-0.2,0.2-0.4,0.3c-1.2,0.9-2.3,1.7-2.7,2.4c-0.1,0.1-0.2,0.4-0.3,1.3l-1.2-1.2l8.2-8.2L68.8,37z M62.8,31l2.8,2.8L57.5,42
	l-2.8-2.8L62.8,31z M30.3,33.2l2.8-2.8l8.2,8.2l-2.8,2.8L30.3,33.2z M37,26.4c-0.1,0.1-0.2,0.3-0.3,0.4c-0.4,0.9-0.8,3.1,0.7,4.4
	c0.8,0.7,1.5,1,2,1.2c0.2,0.1,0.4,0.2,0.5,0.2c0.1,0.1,0.2,0.2,0.3,0.4c0.9,1.2,1.7,2.3,2.4,2.7c0.1,0.1,0.3,0.2,1,0.3l-1.1,1.1
	l-8.2-8.2L37,26.4z M39.1,43.2l4.1-4.1c0,0,0,0,0,0l2.9-2.9c0.7,0,1.5,0,2.6-0.1c0.4,0,0.6,0,1,0.5l3.1,3.1l4.1,4.1c0,0,0,0,0,0l3,3
	c0,0.6,0,1.3,0.1,2.2c0,0.4,0,0.6-0.5,1l-3.1,3.1l-4.1,4.1c0,0,0,0,0,0l-2.9,2.9c-0.7,0-1.5,0-2.6,0.1c-0.4,0-0.6,0-1-0.5l-3.1-3.1
	l-4.1-4.1c0,0,0,0,0,0l-3-3c0-0.6,0-1.3-0.1-2.2c0-0.4,0-0.6,0.5-1L39.1,43.2z M58.4,70c0.1-0.1,0.2-0.3,0.3-0.4
	c0.4-0.9,0.8-3.1-0.7-4.4c-0.8-0.7-1.5-1-2-1.2c-0.2-0.1-0.4-0.2-0.5-0.2c-0.1-0.1-0.2-0.2-0.3-0.4c-0.9-1.2-1.7-2.3-2.4-2.7
	c-0.1-0.1-0.3-0.2-1-0.3l1.1-1.1l8.2,8.2L58.4,70z M71,57.4L66.4,62l-8.2-8.2l2.5-2.5c0.6-0.6,1.1-1.2,1-2.4c0-0.1,0-0.1,0-0.2
	c0-0.5,0-0.9-0.1-1.3c0-0.5,0-0.9,0-1.3c0-1.2,0.1-2,0.2-2.2c0.2-0.4,1.7-1.5,2.2-1.8c0.2-0.2,0.4-0.3,0.5-0.4
	c0.3-0.3,0.5-0.7,0.7-1.1c0.2-0.4,0.5-1,1-1.6c0.8-1,2.3-0.3,2.3-0.3c0.2,0.1,0.4,0.3,0.7,0.7l-3.3,3.3c-0.3,0.3-0.3,0.9,0,1.3
	c0.2,0.2,0.4,0.3,0.6,0.3c0.2,0,0.5-0.1,0.6-0.3l3.9-3.9l0.5-0.5l0.6-0.6l0.4-0.4c0.1,0,0.2-0.1,0.3-0.1c0.3,0,0.8,0.1,1.2,0.5
	c0.3,0.3,0.4,0.7,0.4,0.9L74.4,40l-0.6,0.6l-0.6,0.6l-0.9,0.9c-0.3,0.3-0.3,0.9,0,1.3c0.2,0.2,0.4,0.3,0.6,0.3
	c0.2,0,0.5-0.1,0.6-0.3l0.9-0.9l0.6-0.6l0.6-0.6l0.4-0.4c0.4-0.1,1.1,0.3,1.5,0.7c0.2,0.2,0.2,0.9,0.1,1.4l-0.1,0.1l-0.6,0.6
	l-0.6,0.6l-0.7,0.7c-0.3,0.3-0.3,0.9,0,1.3c0.2,0.2,0.4,0.3,0.6,0.3s0.5-0.1,0.6-0.3l0.7-0.7l0.6-0.6l0.5-0.5
	c0.4,0.2,0.8,0.5,1.1,0.9c0.1,0.2,0.1,0.5,0.1,0.7l-1.6,1.6c-0.2,0.2-0.3,0.4-0.2,0.7c0,0.2,0.1,0.4,0.2,0.6
	c0.2,0.2,0.4,0.3,0.6,0.3c0.2,0,0.5-0.1,0.6-0.3l1.3-1.3c0.2,0.1,0.4,0.3,0.6,0.7c0.4,0.6,0.2,1.1,0.1,1.2c-1.4,1.7-3.6,4.5-3.9,4.7
	c-0.1,0.1-0.5,0.4-0.8,0.6l-5.7,2.4C71.1,57.2,71,57.3,71,57.4z M29.6,52.4c-0.3-0.3-0.9-0.3-1.3,0l-3.9,3.9l-0.5,0.5l-0.6,0.6
	l-0.4,0.4c-0.1,0-0.2,0.1-0.3,0.1c-0.3,0-0.8-0.1-1.2-0.5c-0.3-0.3-0.4-0.7-0.4-0.9l0.1-0.1l0.6-0.6l0.6-0.6l0.9-0.9
	c0.3-0.3,0.3-0.9,0-1.3c-0.3-0.3-0.9-0.3-1.3,0L21,53.9l-0.6,0.6l-0.6,0.6l-0.4,0.4c-0.4,0.1-1.1-0.3-1.5-0.7
	c-0.2-0.2-0.2-0.9-0.1-1.4l0.1-0.1l0.6-0.6l0.6-0.6l0.7-0.7c0.3-0.3,0.3-0.9,0-1.3c-0.3-0.3-0.9-0.3-1.3,0l-0.7,0.7l-0.6,0.6
	l-0.5,0.5c-0.4-0.2-0.8-0.5-1.1-0.9c-0.1-0.2-0.1-0.5-0.1-0.7c0-0.1,0-0.1,0-0.2c0-0.1,0-0.2,0-0.4c0,0,0,0,0,0l1.7-1.7
	c0-0.2-0.1-0.4-0.2-0.6c-0.3-0.3-0.9-0.3-1.3,0l-1.3,1.3c-0.2-0.1-0.4-0.3-0.6-0.7c-0.4-0.6-0.2-1.1-0.1-1.2
	c1.4-1.7,3.6-4.5,3.9-4.7c0.1-0.1,0.5-0.4,0.8-0.6l5.7-2.4c0.1,0,0.2-0.1,0.3-0.2l4.6-4.6l8.2,8.2l-2.5,2.5c-0.6,0.6-1.1,1.2-1,2.4
	c0,0.1,0,0.1,0,0.2c0,0.5,0,0.9,0.1,1.3c0,0.5,0,0.9,0,1.3c0,1.2-0.1,2-0.2,2.2c-0.2,0.4-1.7,1.5-2.2,1.8c-0.2,0.2-0.4,0.3-0.5,0.4
	c-0.3,0.3-0.5,0.7-0.7,1.1c-0.2,0.4-0.5,1-1,1.6c-0.8,1-2.3,0.3-2.3,0.3c-0.2-0.1-0.4-0.3-0.7-0.7l3.3-3.3
	C29.9,53.3,29.9,52.7,29.6,52.4z M26.5,59.4c1.1,0.3,2.8,0.5,4-0.9c0.7-0.8,1-1.5,1.2-2c0.1-0.2,0.2-0.4,0.2-0.5
	c0.1-0.1,0.2-0.2,0.4-0.3c1.2-0.9,2.3-1.7,2.7-2.4c0.1-0.1,0.2-0.4,0.3-1.3l1.2,1.2l-8.2,8.2L26.5,59.4z M29.7,62.6l8.2-8.2l2.8,2.8
	l-8.2,8.2L29.7,62.6z M57.2,73.6l-1.1,1.1c-0.1,0-0.1,0-0.2,0l-0.6-0.6l-0.6-0.6l-1.1-1.1c-0.3-0.3-0.9-0.3-1.3,0
	c-0.3,0.3-0.3,0.9,0,1.3l1.1,1.1l0.6,0.6l0.6,0.6l0.2,0.2c0.1,0.4-0.3,1.1-0.7,1.5c-0.2,0.2-0.8,0.2-1.3,0.1c0,0-0.1,0-0.1,0
	l-0.5-0.5l-0.6-0.6l-0.9-0.9c-0.3-0.3-0.9-0.3-1.3,0c-0.3,0.3-0.3,0.9,0,1.3l0.9,0.9l0.6,0.6l0.3,0.3c-0.2,0.4-0.5,0.8-0.9,1.1
	c-0.3,0.2-0.7,0.1-0.9,0.1c-0.1,0-0.1,0-0.2,0c0,0,0,0,0,0l-1.6-1.6c-0.3-0.3-0.9-0.3-1.3,0c-0.3,0.3-0.3,0.9,0,1.3l1.6,1.6
	c-0.1,0.1-0.3,0.3-0.5,0.5c-0.6,0.4-1.1,0.2-1.2,0.1c-1.7-1.4-4.5-3.6-4.7-3.9c-0.1-0.1-0.4-0.5-0.6-0.8l-2.4-5.7
	c0-0.1-0.1-0.2-0.2-0.3l-4.6-4.6l8.2-8.2l2.5,2.5c0.6,0.6,1.2,1.1,2.4,1c0.2,0,0.4,0,0.6,0c0.5,0,0.9,0,1.3,0c0.5,0,0.9,0,1.3,0
	c1,0,1.6,0.1,1.8,0.2c0.4,0.2,1.5,1.7,1.8,2.2c0.2,0.2,0.3,0.4,0.4,0.5c0.3,0.3,0.7,0.5,1.1,0.7c0.4,0.2,1,0.5,1.6,1
	c1,0.8,0.3,2.3,0.3,2.3c-0.1,0.2-0.3,0.4-0.7,0.7L53,66.1c-0.3-0.3-0.9-0.3-1.3,0c-0.3,0.3-0.3,0.9,0,1.3l3.9,3.9l0.7,0.7l0.6,0.6
	l0.2,0.2C57.3,73,57.3,73.3,57.2,73.6z"/>
</svg>
