<?xml version="1.0" encoding="utf-8"?>
<!-- Generator: Adobe Illustrator 21.1.0, SVG Export Plug-In . SVG Version: 6.00 Build 0)  -->
<svg version="1.1" id="Laag_1" xmlns="http://www.w3.org/2000/svg"  x="0px" y="0px"
	 viewBox="0 0 230 230" style="enable-background:new 0 0 230 230;" xml:space="preserve">
<style type="text/css">
	.st0{fill:none;stroke:#28A6DF;stroke-width:3.2135;stroke-linecap:round;stroke-miterlimit:10;}
	.st1{fill:none;stroke:#28A6DF;stroke-width:3.2135;stroke-linecap:round;stroke-linejoin:round;stroke-miterlimit:10;}
</style>
<path class="st0" d="M115.5,153.2"/>
<polygon class="st1" points="143.7,105.8 147.9,106.8 154.5,90.7 147.5,89.1 140.6,87.6 139.6,104.9 "/>
<polygon class="st1" points="148.6,106.5 143.8,105.5 139,104.4 126.9,119.8 134.2,147.4 152.8,125.7 "/>
<path class="st1" d="M154.5,90.7l-13.9-3.2l12.4-74.2C154,6.8,160.5,2.5,167,4l0,0c6.5,1.5,10.4,8.2,8.6,14.6L154.5,90.7z"/>
<line class="st1" x1="134.4" y1="146.5" x2="139.3" y2="125.3"/>
<ellipse transform="matrix(0.2229 -0.9748 0.9748 0.2229 -10.3993 231.4396)" class="st1" cx="140" cy="122.2" rx="2.6" ry="2.6"/>
<path class="st0" d="M126.9,119.8l-7.3-4.5c-3.1-2.1-6.9-3-10.6-2.6l-82,8.9c-2.9,0.3-4.6,3.6-3,6.1l52.8,85.2
	c1.9,3.1,5.6,4.5,9.1,3.5l120.7-35.1c3.3-1,4-5.3,1.1-7.2L147,133.6"/>
<path class="st0" d="M24.5,130.4c-2.9,0.3-4.6,3.6-3,6.1l52.8,85.2c1.9,3.1,5.6,4.5,9.1,3.5L204,190.2c3.3-1,4-5.3,1.1-7.2"/>
<line class="st0" x1="53.9" y1="133.5" x2="108.9" y2="126.2"/>
<line class="st0" x1="62.2" y1="144.9" x2="120.3" y2="137.2"/>
<line class="st0" x1="74" y1="157.3" x2="132.7" y2="147.7"/>
</svg>
