<svg id="Calque_1" data-name="Calque 1" xmlns="http://www.w3.org/2000/svg" viewBox="0 0 374.85 57.41"><title>Fundrequest-title</title><path d="M4,28.67l24-24a2.74,2.74,0,0,0,.8-1.93,2.7,2.7,0,0,0-3-2.68A28.88,28.88,0,0,0,1.35,20,10.23,10.23,0,0,0,4,28.67Z" transform="translate(0 0)" style="fill:#ffd64a"/><path d="M1.36,20l0,.1,0-.08Z" transform="translate(0 0)" style="fill:#f68c3e"/><polygon points="4.01 28.67 4.01 28.67 3.96 28.72 4.01 28.67" style="fill:#f68c3e"/><path d="M4,28.72l0,0A10.23,10.23,0,0,1,1.35,20l0,.08a28.78,28.78,0,0,0-.95,4l0,.24q-.15,1-.23,2c0,.12,0,.25,0,.37C0,27.35,0,28,0,28.72q0,.72,0,1.44c0,.16,0,.32,0,.47,0,.32,0,.63.07.95s0,.37.07.56.07.56.11.84.06.39.1.59.09.53.14.8.08.4.13.59.11.51.18.76.1.4.16.6.14.49.21.74l.19.59q.12.36.24.72l.21.58.28.7.24.57.31.68.26.55.34.67.28.53.38.67.3.5.43.66.31.47.48.68.3.42c.19.25.39.5.59.75l.24.31q.43.52.88,1l.17.18c.25.27.5.53.75.79l.35.33.62.59.41.36.6.52.45.36.61.48.48.35.61.44.5.33.63.4.52.31.65.37.54.29.66.34.55.27.68.31.56.24.71.28.57.21.74.25.56.18.78.22.55.15.86.2.5.11,1.06.19.31.06,1.16.15a2.86,2.86,0,0,0,2.95-1.48,2.71,2.71,0,0,0-.52-3.1Z" transform="translate(0 0)" style="fill:#f68c3e"/><path d="M56.34,28.67l-24-24a2.74,2.74,0,0,1-.8-1.93,2.7,2.7,0,0,1,3-2.68A28.88,28.88,0,0,1,59,20a10.23,10.23,0,0,1-2.65,8.69Z" transform="translate(0 0)" style="fill:#30b561"/><path d="M59,20l0,.1L59,20Z" transform="translate(0 0)" style="fill:#f68c3e"/><polygon points="56.34 28.67 56.34 28.67 56.38 28.72 56.34 28.67" style="fill:#f68c3e"/><path d="M56.38,28.72l0,0A10.23,10.23,0,0,0,59,20l0,.08a28.78,28.78,0,0,1,.95,4l0,.24q.15,1,.23,2c0,.12,0,.25,0,.37,0,.68.08,1.36.08,2q0,.72,0,1.44c0,.16,0,.32,0,.47,0,.32,0,.63-.07.95s0,.37-.07.56-.07.56-.11.84-.06.39-.1.59-.09.53-.14.8-.08.4-.13.59-.11.51-.18.76-.1.4-.16.6-.14.49-.21.74l-.19.59q-.12.36-.24.72l-.21.58-.28.7-.24.57-.31.68-.26.55-.34.67-.28.53-.38.67-.3.5-.43.66-.31.47-.48.68-.3.42c-.19.25-.39.5-.59.75l-.24.31q-.43.52-.88,1l-.17.18c-.25.27-.5.53-.75.79l-.35.33L51,50l-.41.36-.6.52-.45.36-.61.48-.48.35-.61.44-.5.33-.63.4-.52.31-.65.37-.54.29-.66.34-.55.27-.68.31-.56.24-.71.28-.57.21-.74.25-.56.18-.78.22-.55.15-.86.2-.5.11-1.06.19-.31.06-1.16.15a2.86,2.86,0,0,1-2.95-1.48,2.71,2.71,0,0,1,.52-3.1Z" transform="translate(0 0)" style="fill:#7cc78f"/><path d="M98.08,15.39H83v9.68H95.6a3.79,3.79,0,0,1,2.62.79,2.7,2.7,0,0,1,.86,2.1,2.65,2.65,0,0,1-.88,2.09,3.83,3.83,0,0,1-2.61.77H83V43.29a5,5,0,0,1-1.07,3.52,3.88,3.88,0,0,1-5.52,0,5,5,0,0,1-1.07-3.51V14.18a6.38,6.38,0,0,1,.49-2.7A3,3,0,0,1,77.34,10,6.46,6.46,0,0,1,80,9.48H98.08a3.93,3.93,0,0,1,2.72.81,2.75,2.75,0,0,1,.89,2.13,2.78,2.78,0,0,1-.89,2.15A3.93,3.93,0,0,1,98.08,15.39Z" transform="translate(0 0)" style="fill:#39a4dc"/><path d="M104.32,36.57V23.83a3.54,3.54,0,0,1,.73-2.44,2.46,2.46,0,0,1,1.92-.81,2.53,2.53,0,0,1,2,.81,3.54,3.54,0,0,1,.73,2.44v13a11.87,11.87,0,0,0,.5,3.71,4.28,4.28,0,0,0,1.76,2.31,6.47,6.47,0,0,0,3.54.82q3.14,0,4.44-1.67a8.18,8.18,0,0,0,1.3-5.07V23.83a3.57,3.57,0,0,1,.72-2.45,2.47,2.47,0,0,1,1.93-.8,2.55,2.55,0,0,1,2,.8,3.48,3.48,0,0,1,.75,2.45V36.57a18.85,18.85,0,0,1-.61,5.18,8,8,0,0,1-2.28,3.65,8.88,8.88,0,0,1-3.36,2,14.71,14.71,0,0,1-4.48.61,18.47,18.47,0,0,1-5.26-.66,8.4,8.4,0,0,1-3.59-2,8.22,8.22,0,0,1-2-3.54A18,18,0,0,1,104.32,36.57Z" transform="translate(0 0)" style="fill:#39a4dc"/><path d="M139.38,23.8,149.7,39.4V23.65a3.46,3.46,0,0,1,.66-2.3,2.22,2.22,0,0,1,1.78-.77,2.29,2.29,0,0,1,1.82.77,3.43,3.43,0,0,1,.67,2.3V44.48q0,3.49-2.89,3.49a3.84,3.84,0,0,1-1.3-.21,3.3,3.3,0,0,1-1.08-.66,6.41,6.41,0,0,1-.94-1.06l-.87-1.24L137.49,29.38V44.89a3.31,3.31,0,0,1-.7,2.29A2.33,2.33,0,0,1,135,48a2.3,2.3,0,0,1-1.82-.79,3.38,3.38,0,0,1-.69-2.29V24.46a5.78,5.78,0,0,1,.29-2,2.91,2.91,0,0,1,1.14-1.33,3.09,3.09,0,0,1,1.72-.51,2.81,2.81,0,0,1,2.14.87,6.53,6.53,0,0,1,.79,1Z" transform="translate(0 0)" style="fill:#39a4dc"/><path d="M163.82,21h7a18.86,18.86,0,0,1,4.68.51,8.6,8.6,0,0,1,3.54,1.9q4.14,3.54,4.14,10.77a21.13,21.13,0,0,1-.42,4.35,12.85,12.85,0,0,1-1.28,3.55,11,11,0,0,1-2.22,2.83,9.16,9.16,0,0,1-2.33,1.54,10.56,10.56,0,0,1-2.72.81,20.73,20.73,0,0,1-3.28.23h-7a4.38,4.38,0,0,1-2.2-.44,2.06,2.06,0,0,1-1-1.25,7.91,7.91,0,0,1-.23-2.09V24.32a3.45,3.45,0,0,1,.78-2.51A3.45,3.45,0,0,1,163.82,21Zm2.08,4.25v18H170q1.34,0,2.1-.07a6.55,6.55,0,0,0,1.57-.36A4.27,4.27,0,0,0,175,42q2.69-2.28,2.69-7.84a11.55,11.55,0,0,0-1.18-5.87,5.27,5.27,0,0,0-2.92-2.48,14.42,14.42,0,0,0-4.19-.53Z" transform="translate(0 0)" style="fill:#39a4dc"/><path d="M197.74,31.14h-2.68V43.29A5.05,5.05,0,0,1,194,46.83,3.6,3.6,0,0,1,191.24,48a3.52,3.52,0,0,1-2.84-1.19,5.26,5.26,0,0,1-1-3.48V14.18a4.93,4.93,0,0,1,1.11-3.59,4.92,4.92,0,0,1,3.59-1.11h12.47A38.13,38.13,0,0,1,209,9.7a11.13,11.13,0,0,1,3.3.89,9.6,9.6,0,0,1,3.15,2.14A9.39,9.39,0,0,1,217.5,16a10.79,10.79,0,0,1,.71,3.91,9.45,9.45,0,0,1-2.39,6.76,13.72,13.72,0,0,1-7.24,3.59,14,14,0,0,1,3.9,3.2,32.43,32.43,0,0,1,3.32,4.5,33.24,33.24,0,0,1,2.27,4.31,8.51,8.51,0,0,1,.81,2.64,2.71,2.71,0,0,1-.48,1.48,3.35,3.35,0,0,1-1.3,1.16,4.1,4.1,0,0,1-1.91.43,3.73,3.73,0,0,1-2.17-.61,5.83,5.83,0,0,1-1.51-1.54q-.63-.93-1.72-2.73L206.73,38a28.25,28.25,0,0,0-3-4.28,7.3,7.3,0,0,0-2.65-2A9.12,9.12,0,0,0,197.74,31.14Zm4.39-15.9h-7.07v10.4h6.87a19.18,19.18,0,0,0,4.65-.48,5.44,5.44,0,0,0,2.88-1.63,4.68,4.68,0,0,0,1-3.16,4.78,4.78,0,0,0-3-4.57A16,16,0,0,0,202.13,15.24Z" transform="translate(0 0)" style="fill:#39a4dc"/><path d="M240.94,25.17H228.85v6.5H240a2.65,2.65,0,0,1,1.83.55,1.87,1.87,0,0,1,.6,1.45,2,2,0,0,1-.6,1.47,2.59,2.59,0,0,1-1.84.57H228.85v7.53h12.5a2.74,2.74,0,0,1,1.91.59,2,2,0,0,1,.64,1.56,2,2,0,0,1-.64,1.53,2.73,2.73,0,0,1-1.91.59H226.77a3.44,3.44,0,0,1-2.52-.78,3.47,3.47,0,0,1-.77-2.51V24.32a4.46,4.46,0,0,1,.34-1.89,2.13,2.13,0,0,1,1.07-1.07,4.52,4.52,0,0,1,1.87-.33h14.16a2.75,2.75,0,0,1,1.91.57,1.92,1.92,0,0,1,.62,1.49,1.94,1.94,0,0,1-.62,1.51A2.75,2.75,0,0,1,240.94,25.17Z" transform="translate(0 0)" style="fill:#39a4dc"/><path d="M269.46,44.22A29.73,29.73,0,0,0,272,45.77,9.14,9.14,0,0,1,273.86,47a1.68,1.68,0,0,1,.45,1.25,1.72,1.72,0,0,1-.53,1.16,1.69,1.69,0,0,1-1.29.58,3.75,3.75,0,0,1-1.49-.4,16.71,16.71,0,0,1-2.06-1.16q-1.18-.76-2.59-1.77A14,14,0,0,1,259.92,48a14.73,14.73,0,0,1-5.54-1,10.88,10.88,0,0,1-4.11-2.83,12.23,12.23,0,0,1-2.5-4.4,17.63,17.63,0,0,1-.84-5.54,17.12,17.12,0,0,1,.88-5.6,12,12,0,0,1,2.54-4.33,11,11,0,0,1,4-2.74,14.55,14.55,0,0,1,5.42-.95,14.15,14.15,0,0,1,7.07,1.67A10.83,10.83,0,0,1,271.35,27a16.19,16.19,0,0,1,1.52,7.23Q272.87,40.54,269.46,44.22Zm-4.21-2.93a8.15,8.15,0,0,0,1.65-3,14,14,0,0,0,.53-4.06,12.43,12.43,0,0,0-.94-5,7,7,0,0,0-2.68-3.22,7.37,7.37,0,0,0-4-1.09,7.24,7.24,0,0,0-3,.6,6.54,6.54,0,0,0-2.35,1.76,8.41,8.41,0,0,0-1.55,3,13.34,13.34,0,0,0-.57,4q0,4.57,2.13,7a6.81,6.81,0,0,0,5.38,2.46,7.41,7.41,0,0,0,2.75-.56,14.09,14.09,0,0,0-2.12-1.26,13.43,13.43,0,0,1-1.74-1,1.13,1.13,0,0,1-.47-1,1.27,1.27,0,0,1,.45-1,1.44,1.44,0,0,1,1-.42Q261.38,38.55,265.25,41.3Z" transform="translate(0 0)" style="fill:#39a4dc"/><path d="M277.49,36.57V23.83a3.54,3.54,0,0,1,.73-2.44,2.46,2.46,0,0,1,1.92-.81,2.53,2.53,0,0,1,2,.81,3.54,3.54,0,0,1,.73,2.44v13a11.87,11.87,0,0,0,.5,3.71,4.28,4.28,0,0,0,1.76,2.31,6.47,6.47,0,0,0,3.54.82q3.14,0,4.44-1.67A8.18,8.18,0,0,0,294.4,37V23.83a3.57,3.57,0,0,1,.72-2.45,2.47,2.47,0,0,1,1.93-.8,2.55,2.55,0,0,1,2,.8,3.48,3.48,0,0,1,.75,2.45V36.57a18.85,18.85,0,0,1-.61,5.18,8,8,0,0,1-2.28,3.65,8.88,8.88,0,0,1-3.36,2A14.71,14.71,0,0,1,289,48a18.47,18.47,0,0,1-5.26-.66,8.4,8.4,0,0,1-3.59-2,8.22,8.22,0,0,1-2-3.54A18,18,0,0,1,277.49,36.57Z" transform="translate(0 0)" style="fill:#39a4dc"/><path d="M323,25.17H310.93v6.5h11.13a2.65,2.65,0,0,1,1.83.55,1.87,1.87,0,0,1,.61,1.45,1.94,1.94,0,0,1-.6,1.47,2.59,2.59,0,0,1-1.84.57H310.93v7.53h12.5a2.74,2.74,0,0,1,1.91.59A2,2,0,0,1,326,45.4a2,2,0,0,1-.64,1.53,2.73,2.73,0,0,1-1.91.59H308.85a3.44,3.44,0,0,1-2.52-.78,3.47,3.47,0,0,1-.77-2.51V24.32a4.46,4.46,0,0,1,.34-1.89A2.13,2.13,0,0,1,307,21.37a4.52,4.52,0,0,1,1.87-.33H323a2.75,2.75,0,0,1,1.91.57,1.92,1.92,0,0,1,.62,1.49,1.94,1.94,0,0,1-.62,1.51A2.76,2.76,0,0,1,323,25.17Z" transform="translate(0 0)" style="fill:#39a4dc"/><path d="M350.36,39.56a7.78,7.78,0,0,1-1.24,4.32,8.22,8.22,0,0,1-3.62,3A13.58,13.58,0,0,1,339.84,48a12.72,12.72,0,0,1-6.47-1.48,8.62,8.62,0,0,1-2.94-2.84,6.46,6.46,0,0,1-1.13-3.46,2.35,2.35,0,0,1,2.4-2.37,2,2,0,0,1,1.44.54,4.25,4.25,0,0,1,1,1.61,10.73,10.73,0,0,0,1.09,2.11,4.44,4.44,0,0,0,1.65,1.4,6.11,6.11,0,0,0,2.8.55,6.32,6.32,0,0,0,3.88-1.11,3.34,3.34,0,0,0,1.49-2.77,2.93,2.93,0,0,0-.8-2.14,5.18,5.18,0,0,0-2.08-1.26q-1.27-.43-3.4-.92A24.89,24.89,0,0,1,334,34.26a7.71,7.71,0,0,1-3.05-2.44A6.33,6.33,0,0,1,329.82,28,6.59,6.59,0,0,1,331,24.1a7.51,7.51,0,0,1,3.45-2.61,14.12,14.12,0,0,1,5.31-.91,13.14,13.14,0,0,1,4.22.6,8.93,8.93,0,0,1,3,1.61,6.73,6.73,0,0,1,1.72,2.1A4.85,4.85,0,0,1,349.2,27a2.53,2.53,0,0,1-.68,1.72,2.16,2.16,0,0,1-1.69.77,1.94,1.94,0,0,1-1.4-.46,6.2,6.2,0,0,1-1-1.51,6.84,6.84,0,0,0-1.73-2.34,5.08,5.08,0,0,0-3.25-.84,5.64,5.64,0,0,0-3.35.91,2.65,2.65,0,0,0-1.27,2.2,2.22,2.22,0,0,0,.43,1.37,3.64,3.64,0,0,0,1.19,1,8,8,0,0,0,1.54.65q.78.24,2.57.69a40.29,40.29,0,0,1,4.05,1.16,12.37,12.37,0,0,1,3.09,1.54,6.32,6.32,0,0,1,2,2.29A7.32,7.32,0,0,1,350.36,39.56Z" transform="translate(0 0)" style="fill:#39a4dc"/><path d="M372.1,25.46h-5.85V44.69a3.54,3.54,0,0,1-.74,2.46,2.48,2.48,0,0,1-1.91.8,2.52,2.52,0,0,1-1.94-.81,3.52,3.52,0,0,1-.75-2.46V25.46h-5.85a3,3,0,0,1-2-.6,2.05,2.05,0,0,1-.67-1.6,2,2,0,0,1,.7-1.63,3,3,0,0,1,2-.6H372.1a3,3,0,0,1,2.07.61,2.07,2.07,0,0,1,.68,1.61,2,2,0,0,1-.69,1.6A3,3,0,0,1,372.1,25.46Z" transform="translate(0 0)" style="fill:#39a4dc"/></svg>