<?xml version="1.0" encoding="utf-8"?>
<!-- Generator: Adobe Illustrator 21.1.0, SVG Export Plug-In . SVG Version: 6.00 Build 0)  -->
<svg version="1.1" id="Calque_1" xmlns="http://www.w3.org/2000/svg"  x="0px" y="0px"
	 viewBox="0 0 374.9 57.4" style="enable-background:new 0 0 374.9 57.4;" xml:space="preserve">
<style type="text/css">
	.st0{fill:#FFD64A;}
	.st1{fill:#F68C3E;}
	.st2{fill:#30B561;}
	.st3{fill:#7CC78F;}
	.st4{fill:#FFFFFF;}
</style>
<title>Fundrequest-title</title>
<path class="st0" d="M4,28.7l24-24c0.5-0.5,0.8-1.2,0.8-1.9c0-1.5-1.2-2.7-2.7-2.7c-0.1,0-0.2,0-0.3,0C14.4,1.3,4.8,9.1,1.4,20
	C0.8,23.1,1.8,26.4,4,28.7z"/>
<path class="st1" d="M1.4,20v0.1V20L1.4,20z"/>
<polygon class="st1" points="4,28.7 4,28.7 4,28.7 "/>
<path class="st1" d="M4,28.7L4,28.7c-2.2-2.3-3.2-5.6-2.7-8.7v0.1c-0.4,1.3-0.7,2.6-0.9,4v0.2c-0.1,0.7-0.2,1.3-0.2,2
	c0,0.1,0,0.3,0,0.4C0,27.4,0,28,0,28.7c0,0.5,0,1,0,1.4c0,0.2,0,0.3,0,0.5c0,0.3,0,0.6,0.1,1s0,0.4,0.1,0.6s0.1,0.6,0.1,0.8
	s0.1,0.4,0.1,0.6s0.1,0.5,0.1,0.8s0.1,0.4,0.1,0.6s0.1,0.5,0.2,0.8s0.1,0.4,0.2,0.6s0.1,0.5,0.2,0.7l0.2,0.6
	c0.1,0.2,0.2,0.5,0.2,0.7L1.8,39l0.3,0.7l0.2,0.6l0.3,0.7l0.3,0.5l0.3,0.7l0.3,0.5l0.4,0.7l0.3,0.5l0.4,0.7l0.3,0.5l0.5,0.7L5.7,46
	c0.2,0.3,0.4,0.5,0.6,0.8l0.2,0.3c0.3,0.3,0.6,0.7,0.9,1l0.2,0.2c0.3,0.3,0.5,0.5,0.8,0.8l0.4,0.3L9.3,50l0.4,0.4l0.6,0.5l0.4,0.4
	l0.6,0.5l0.5,0.3l0.6,0.4l0.5,0.3l0.6,0.4l0.5,0.3l0.6,0.4l0.5,0.3l0.7,0.3l0.6,0.3l0.7,0.3l0.6,0.2l0.7,0.3l0.6,0.2l0.7,0.3
	l0.6,0.2l0.8,0.2l0.5,0.2l0.9,0.2L23,57l1.1,0.2l0.3,0.1l1.2,0.2c1.2,0.2,2.4-0.4,3-1.5c0.5-1,0.3-2.3-0.5-3.1L4,28.7z"/>
<path class="st2" d="M56.3,28.7l-24-24c-0.5-0.5-0.8-1.2-0.8-1.9c0-1.5,1.2-2.7,2.7-2.7c0.1,0,0.2,0,0.3,0c11.4,1.2,21,9,24.5,19.9
	C59.5,23.2,58.5,26.4,56.3,28.7L56.3,28.7z"/>
<path class="st1" d="M59,20v0.1V20z"/>
<polygon class="st1" points="56.3,28.7 56.3,28.7 56.4,28.7 "/>
<path class="st3" d="M56.4,28.7L56.4,28.7c2.2-2.3,3.2-5.6,2.6-8.7v0.1c0.4,1.3,0.7,2.6,1,4v0.2c0.1,0.7,0.2,1.3,0.2,2
	c0,0.1,0,0.3,0,0.4c0,0.7,0.1,1.4,0.1,2c0,0.5,0,1,0,1.4c0,0.2,0,0.3,0,0.5c0,0.3,0,0.6-0.1,1s0,0.4-0.1,0.6S60.1,32.7,60,33
	s-0.1,0.4-0.1,0.6s-0.1,0.5-0.1,0.8s-0.1,0.4-0.1,0.6s-0.1,0.5-0.2,0.8s-0.1,0.4-0.2,0.6s-0.1,0.5-0.2,0.7l-0.2,0.6
	c-0.1,0.2-0.2,0.5-0.2,0.7l-0.2,0.6l-0.3,0.7l-0.2,0.6l-0.3,0.7l-0.3,0.5L57,42.1l-0.3,0.5l-0.4,0.7l-0.3,0.5l-0.4,0.7l-0.3,0.5
	l-0.5,0.7L54.5,46c-0.2,0.3-0.4,0.5-0.6,0.8l-0.2,0.3c-0.3,0.3-0.6,0.7-0.9,1l-0.2,0.2c-0.3,0.3-0.5,0.5-0.8,0.8l-0.3,0.3L51,50
	l-0.4,0.4L50,50.9l-0.5,0.4l-0.6,0.5l-0.5,0.3l-0.6,0.4l-0.5,0.3l-0.6,0.4l-0.5,0.3l-0.7,0.4L45,54.2l-0.7,0.3l-0.5,0.3l-0.7,0.3
	l-0.6,0.2l-0.7,0.3l-0.6,0.2l-0.7,0.3L40,56.3l-0.8,0.2l-0.5,0.2l-0.9,0.2L37.3,57l-1.1,0.2l-0.3,0.1l-1.2,0.2
	c-1.2,0.2-2.4-0.4-3-1.5c-0.5-1-0.3-2.3,0.5-3.1L56.4,28.7z"/>
<path class="st4" d="M98.1,15.4H83v9.7h12.6c0.9-0.1,1.9,0.2,2.6,0.8c0.6,0.5,0.9,1.3,0.9,2.1c0,0.8-0.3,1.6-0.9,2.1
	c-0.7,0.6-1.7,0.8-2.6,0.8H83v12.5c0.1,1.3-0.3,2.5-1.1,3.5c-1.5,1.5-4,1.5-5.5,0c0,0,0,0,0,0c-0.8-1-1.2-2.2-1.1-3.5V14.2
	c0-0.9,0.1-1.8,0.5-2.7c0.3-0.7,0.8-1.2,1.5-1.5c0.8-0.4,1.7-0.5,2.7-0.5h18.1c1-0.1,1.9,0.2,2.7,0.8c0.6,0.5,0.9,1.3,0.9,2.1
	c0,0.8-0.3,1.6-0.9,2.1C100,15.2,99.1,15.5,98.1,15.4z"/>
<path class="st4" d="M104.3,36.6V23.8c-0.1-0.9,0.2-1.7,0.7-2.4c0.5-0.5,1.2-0.8,1.9-0.8c0.8,0,1.5,0.3,2,0.8
	c0.5,0.7,0.8,1.6,0.7,2.4v13c0,1.3,0.1,2.5,0.5,3.7c0.3,1,0.9,1.8,1.8,2.3c1.1,0.6,2.3,0.9,3.5,0.8c2.1,0,3.6-0.6,4.4-1.7
	c1-1.5,1.4-3.3,1.3-5.1V23.8c-0.1-0.9,0.2-1.8,0.7-2.5c0.5-0.5,1.2-0.8,1.9-0.8c0.8,0,1.5,0.3,2,0.8c0.6,0.7,0.8,1.6,0.8,2.5v12.7
	c0,1.7-0.2,3.5-0.6,5.2c-0.4,1.4-1.2,2.7-2.3,3.7c-1,0.9-2.1,1.6-3.4,2c-1.5,0.4-3,0.6-4.5,0.6c-1.8,0-3.5-0.2-5.3-0.7
	c-1.3-0.4-2.6-1-3.6-2c-1-1-1.6-2.2-2-3.5C104.6,40.1,104.3,38.3,104.3,36.6z"/>
<path class="st4" d="M139.4,23.8l10.3,15.6V23.6c-0.1-0.8,0.2-1.6,0.7-2.3c0.4-0.5,1.1-0.8,1.8-0.8c0.7,0,1.4,0.3,1.8,0.8
	c0.5,0.7,0.7,1.5,0.7,2.3v20.8c0,2.3-1,3.5-2.9,3.5c-0.4,0-0.9-0.1-1.3-0.2c-0.4-0.1-0.8-0.4-1.1-0.7c-0.4-0.3-0.7-0.7-0.9-1.1
	l-0.9-1.2l-10.1-15.4v15.5c0.1,0.8-0.2,1.6-0.7,2.3c-0.4,0.5-1.1,0.8-1.8,0.8c-0.7,0-1.4-0.3-1.8-0.8c-0.5-0.7-0.7-1.5-0.7-2.3V24.5
	c0-0.7,0.1-1.4,0.3-2c0.2-0.5,0.6-1,1.1-1.3c0.5-0.3,1.1-0.5,1.7-0.5c0.8,0,1.6,0.3,2.1,0.9c0.3,0.3,0.6,0.6,0.8,1L139.4,23.8z"/>
<path class="st4" d="M163.8,21h7c1.6,0,3.1,0.1,4.7,0.5c1.3,0.3,2.5,1,3.5,1.9c2.8,2.4,4.1,6,4.1,10.8c0,1.5-0.1,2.9-0.4,4.3
	c-0.2,1.2-0.7,2.4-1.3,3.5c-0.6,1.1-1.3,2-2.2,2.8c-0.7,0.6-1.5,1.1-2.3,1.5c-0.9,0.4-1.8,0.7-2.7,0.8c-1.1,0.2-2.2,0.2-3.3,0.2h-7
	c-0.8,0-1.5-0.1-2.2-0.4c-0.5-0.3-0.8-0.7-1-1.3c-0.2-0.7-0.2-1.4-0.2-2.1V24.3c-0.1-0.9,0.2-1.8,0.8-2.5
	C162,21.2,162.9,20.9,163.8,21z M165.9,25.3v18h4.1c0.9,0,1.6,0,2.1-0.1c0.5-0.1,1.1-0.2,1.6-0.4c0.5-0.2,0.9-0.5,1.3-0.8
	c1.8-1.5,2.7-4.1,2.7-7.8c0.1-2-0.3-4.1-1.2-5.9c-0.6-1.2-1.7-2-2.9-2.5c-1.4-0.4-2.8-0.6-4.2-0.5L165.9,25.3z"/>
<path class="st4" d="M197.7,31.1h-2.7v12.2c0.1,1.3-0.3,2.5-1.1,3.5c-0.7,0.8-1.7,1.2-2.8,1.2c-1.1,0.1-2.1-0.4-2.8-1.2
	c-0.7-1-1.1-2.2-1-3.5V14.2c-0.1-1.3,0.3-2.6,1.1-3.6c1-0.8,2.3-1.2,3.6-1.1h12.5c1.5,0,3,0.1,4.4,0.2c1.1,0.1,2.3,0.4,3.3,0.9
	c1.2,0.5,2.3,1.2,3.1,2.1c0.9,0.9,1.6,2,2.1,3.3c0.5,1.2,0.7,2.6,0.7,3.9c0.1,2.5-0.7,4.9-2.4,6.8c-2,1.9-4.5,3.1-7.2,3.6
	c1.5,0.8,2.8,1.9,3.9,3.2c1.2,1.4,2.3,2.9,3.3,4.5c0.9,1.4,1.6,2.8,2.3,4.3c0.4,0.8,0.7,1.7,0.8,2.6c0,0.5-0.2,1-0.5,1.5
	c-0.3,0.5-0.8,0.9-1.3,1.2c-0.6,0.3-1.2,0.4-1.9,0.4c-0.8,0-1.5-0.2-2.2-0.6c-0.6-0.4-1.1-0.9-1.5-1.5c-0.4-0.6-1-1.5-1.7-2.7
	l-3.1-5.1c-0.9-1.5-1.9-2.9-3-4.3c-0.7-0.9-1.6-1.5-2.6-2C200,31.3,198.9,31.1,197.7,31.1z M202.1,15.2h-7.1v10.4h6.9
	c1.6,0,3.1-0.1,4.6-0.5c1.1-0.2,2.1-0.8,2.9-1.6c0.7-0.9,1.1-2,1-3.2c0.1-2-1.1-3.8-3-4.6C205.7,15.3,203.9,15.1,202.1,15.2z"/>
<path class="st4" d="M240.9,25.2h-12.1v6.5H240c0.7-0.1,1.3,0.1,1.8,0.6c0.4,0.4,0.6,0.9,0.6,1.5c0,0.6-0.2,1.1-0.6,1.5
	c-0.5,0.4-1.2,0.6-1.8,0.6h-11.1v7.5h12.5c0.7-0.1,1.4,0.2,1.9,0.6c0.4,0.4,0.7,1,0.6,1.6c0,0.6-0.2,1.1-0.6,1.5
	c-0.5,0.4-1.2,0.6-1.9,0.6h-14.6c-0.9,0.1-1.8-0.2-2.5-0.8c-0.6-0.7-0.9-1.6-0.8-2.5V24.3c0-0.6,0.1-1.3,0.3-1.9
	c0.2-0.5,0.6-0.9,1.1-1.1c0.6-0.2,1.2-0.4,1.9-0.3h14.2c0.7-0.1,1.4,0.1,1.9,0.6c0.4,0.4,0.6,0.9,0.6,1.5c0,0.6-0.2,1.1-0.6,1.5
	C242.3,25,241.6,25.2,240.9,25.2z"/>
<path class="st4" d="M269.5,44.2c0.8,0.6,1.7,1.1,2.5,1.5c0.7,0.3,1.3,0.7,1.9,1.2c0.3,0.3,0.5,0.8,0.5,1.3c0,0.4-0.2,0.9-0.5,1.2
	c-0.3,0.4-0.8,0.6-1.3,0.6c-0.5,0-1-0.2-1.5-0.4c-0.7-0.3-1.4-0.7-2.1-1.2c-0.8-0.5-1.6-1.1-2.6-1.8c-2,1-4.2,1.4-6.4,1.3
	c-1.9,0-3.8-0.3-5.5-1c-1.6-0.6-3-1.6-4.1-2.8c-1.1-1.3-2-2.8-2.5-4.4c-0.6-1.8-0.9-3.7-0.8-5.5c0-1.9,0.3-3.8,0.9-5.6
	c0.5-1.6,1.4-3.1,2.5-4.3c1.1-1.2,2.5-2.1,4-2.7c1.7-0.7,3.6-1,5.4-1c2.5-0.1,4.9,0.5,7.1,1.7c2,1.1,3.5,2.7,4.5,4.7
	c1.1,2.3,1.6,4.7,1.5,7.2C272.9,38.4,271.7,41.8,269.5,44.2z M265.3,41.3c0.8-0.9,1.3-1.9,1.6-3c0.4-1.3,0.6-2.7,0.5-4.1
	c0-1.7-0.3-3.4-0.9-5c-0.5-1.3-1.5-2.4-2.7-3.2c-1.2-0.7-2.6-1.1-4-1.1c-1,0-2.1,0.2-3,0.6c-0.9,0.4-1.7,1-2.4,1.8
	c-0.7,0.9-1.2,1.9-1.6,3c-0.4,1.3-0.6,2.6-0.6,4c0,3,0.7,5.4,2.1,7c1.3,1.6,3.3,2.5,5.4,2.5c0.9,0,1.9-0.2,2.8-0.6
	c-0.7-0.5-1.4-0.9-2.1-1.3c-0.6-0.3-1.2-0.6-1.7-1c-0.3-0.2-0.5-0.6-0.5-1c0-0.4,0.2-0.8,0.5-1c0.3-0.3,0.6-0.4,1-0.4
	C260.8,38.5,262.7,39.5,265.3,41.3L265.3,41.3z"/>
<path class="st4" d="M277.5,36.6V23.8c-0.1-0.9,0.2-1.7,0.7-2.4c0.5-0.5,1.2-0.8,1.9-0.8c0.8,0,1.5,0.3,2,0.8
	c0.5,0.7,0.8,1.6,0.7,2.4v13c0,1.3,0.1,2.5,0.5,3.7c0.3,1,0.9,1.8,1.8,2.3c1.1,0.6,2.3,0.9,3.5,0.8c2.1,0,3.6-0.6,4.4-1.7
	c1-1.5,1.4-3.2,1.3-5V23.8c-0.1-0.9,0.2-1.8,0.7-2.5c0.5-0.5,1.2-0.8,1.9-0.8c0.8,0,1.5,0.3,2,0.8c0.6,0.7,0.8,1.6,0.8,2.5v12.7
	c0,1.7-0.2,3.5-0.6,5.2c-0.4,1.4-1.2,2.7-2.3,3.7c-1,0.9-2.1,1.6-3.4,2c-1.5,0.4-3,0.6-4.6,0.6c-1.8,0-3.5-0.2-5.3-0.7
	c-1.3-0.4-2.6-1-3.6-2c-1-1-1.6-2.2-2-3.5C277.7,40.1,277.5,38.3,277.5,36.6z"/>
<path class="st4" d="M323,25.2h-12.1v6.5h11.1c0.7-0.1,1.3,0.1,1.8,0.6c0.4,0.4,0.6,0.9,0.6,1.5c0,0.6-0.2,1.1-0.6,1.5
	c-0.5,0.4-1.2,0.6-1.8,0.6h-11.1v7.5h12.5c0.7-0.1,1.4,0.2,1.9,0.6c0.4,0.4,0.7,1,0.7,1.6c0,0.6-0.2,1.1-0.6,1.5
	c-0.5,0.4-1.2,0.6-1.9,0.6h-14.6c-0.9,0.1-1.8-0.2-2.5-0.8c-0.6-0.7-0.9-1.6-0.8-2.5V24.3c0-0.6,0.1-1.3,0.3-1.9
	c0.2-0.5,0.6-0.9,1.1-1.1c0.6-0.2,1.2-0.4,1.9-0.3H323c0.7-0.1,1.4,0.1,1.9,0.6c0.4,0.4,0.6,0.9,0.6,1.5c0,0.6-0.2,1.1-0.6,1.5
	C324.4,25,323.7,25.2,323,25.2z"/>
<path class="st4" d="M350.4,39.6c0,1.5-0.4,3-1.2,4.3c-0.9,1.3-2.1,2.4-3.6,3c-1.8,0.8-3.7,1.2-5.7,1.1c-2.2,0.1-4.5-0.4-6.5-1.5
	c-1.2-0.7-2.2-1.7-2.9-2.8c-0.7-1-1.1-2.2-1.1-3.5c0-1.3,1-2.4,2.3-2.4c0,0,0,0,0.1,0c0.5,0,1.1,0.2,1.4,0.5c0.5,0.5,0.8,1,1,1.6
	c0.3,0.7,0.6,1.4,1.1,2.1c0.4,0.6,1,1.1,1.6,1.4c0.9,0.4,1.8,0.6,2.8,0.5c1.4,0.1,2.7-0.3,3.9-1.1c0.9-0.6,1.5-1.7,1.5-2.8
	c0-0.8-0.3-1.6-0.8-2.1c-0.6-0.6-1.3-1-2.1-1.3c-0.8-0.3-2-0.6-3.4-0.9c-1.6-0.4-3.2-0.9-4.8-1.6c-1.2-0.5-2.3-1.4-3-2.4
	c-0.8-1.1-1.2-2.5-1.1-3.8c0-1.4,0.4-2.8,1.2-3.9c0.9-1.2,2.1-2.1,3.5-2.6c1.7-0.6,3.5-1,5.3-0.9c1.4,0,2.9,0.2,4.2,0.6
	c1.1,0.3,2.1,0.9,3,1.6c0.7,0.6,1.3,1.3,1.7,2.1c0.3,0.7,0.5,1.4,0.5,2.1c0,0.6-0.2,1.3-0.7,1.7c-0.4,0.5-1,0.8-1.7,0.8
	c-0.5,0-1-0.1-1.4-0.5c-0.4-0.5-0.7-1-1-1.5c-0.4-0.9-1-1.7-1.7-2.3c-1-0.6-2.1-0.9-3.3-0.8c-1.2-0.1-2.4,0.3-3.4,0.9
	c-0.8,0.5-1.2,1.3-1.3,2.2c0,0.5,0.1,1,0.4,1.4c0.3,0.4,0.7,0.8,1.2,1c0.5,0.3,1,0.5,1.5,0.6c0.5,0.2,1.4,0.4,2.6,0.7
	c1.4,0.3,2.7,0.7,4,1.2c1.1,0.4,2.1,0.9,3.1,1.5c0.8,0.6,1.5,1.4,2,2.3C350.2,37.2,350.4,38.4,350.4,39.6z"/>
<path class="st4" d="M372.1,25.5h-5.9v19.2c0.1,0.9-0.2,1.8-0.7,2.5c-0.5,0.5-1.2,0.8-1.9,0.8c-0.7,0-1.4-0.3-1.9-0.8
	c-0.6-0.7-0.8-1.6-0.8-2.5V25.5h-5.9c-0.7,0-1.4-0.2-2-0.6c-0.4-0.4-0.7-1-0.7-1.6c0-0.6,0.2-1.2,0.7-1.6c0.6-0.4,1.3-0.6,2-0.6h17
	c0.7-0.1,1.5,0.2,2.1,0.6c0.5,0.4,0.7,1,0.7,1.6c0,0.6-0.2,1.2-0.7,1.6C373.6,25.3,372.8,25.5,372.1,25.5z"/>
</svg>
